<!-- Generated by IcoMoon.io -->
<svg version="1.1" xmlns="http://www.w3.org/2000/svg" width="1034" height="1024" viewBox="0 0 1034 1024">
<title>whatsapp</title>
<g id="icomoon-ignore">
</g>
<path fill="#000" d="M724.412 519.241c4-3.999 4-10.483 0-14.481l-65.166-65.167c-3.999-3.999-10.483-3.999-14.481 0-4 4-4 10.483 0 14.481l57.926 57.927-57.926 57.927c-4 3.999-4 10.482 0 14.481s10.483 3.999 14.481 0l65.166-65.167zM307.359 522.24h409.813v-20.48h-409.813v20.48z"></path>
<path fill="none" stroke-linejoin="miter" stroke-linecap="butt" stroke-miterlimit="4" stroke-width="20.48" stroke="#000" d="M1014.294 512c0 277.11-224.76 501.76-502.027 501.76s-502.026-224.65-502.026-501.76 224.76-501.76 502.026-501.76c277.267 0 502.027 224.65 502.027 501.76z"></path>
</svg>
